Coordinates
version=1
nRows=41
nColumns=38
inDegrees=no

Units are S.I. units (second, meters, Newtons, ...)
If the header above contains a line with 'inDegrees', this indicates whether rotational values are in degrees (yes) or radians (no).

endheader
time	pelvis_tilt	pelvis_list	pelvis_rotation	pelvis_tx	pelvis_ty	pelvis_tz	hip_flexion_r	hip_adduction_r	hip_rotation_r	knee_angle_r	ankle_angle_r	subtalar_angle_r	mtp_angle_r	hip_flexion_l	hip_adduction_l	hip_rotation_l	knee_angle_l	ankle_angle_l	subtalar_angle_l	mtp_angle_l	lumbar_extension	lumbar_bending	lumbar_rotation	arm_flex_r	arm_add_r	arm_rot_r	elbow_flex_r	pro_sup_r	wrist_flex_r	wrist_dev_r	arm_flex_l	arm_add_l	arm_rot_l	elbow_flex_l	pro_sup_l	wrist_flex_l	wrist_dev_l
15	2.99186	1.40178	-1.37404	0.682739	0.457963	0.931612	0.086547	0.0582436	-0.441082	0.0469876	-0.227467	0	0	-0.263837	-0.107569	-0.411179	0.392428	0.212874	0	0	-0.344093	-0.0178823	-0.0423965	0.890724	-0.35509	0.518065	1.03922	1.5708	0	0	0.803606	-0.184116	0.408681	1.17647	1.5708	0	0
15.01	3.02547	1.4085	-1.41142	0.6818	0.448092	0.931335	0.111996	0.0429648	-0.450204	0.0647945	-0.222118	0	0	-0.252299	-0.0925045	-0.404067	0.379438	0.21235	0	0	-0.345252	-0.0278444	-0.0411079	0.896169	-0.356113	0.515011	1.03646	1.5708	0	0	0.812046	-0.182531	0.412561	1.17572	1.5708	0	0
15.02	3.05206	1.41547	-1.44266	0.680982	0.438404	0.930972	0.137376	0.0291812	-0.457215	0.0818257	-0.218153	0	0	-0.238337	-0.0806501	-0.397993	0.370855	0.212051	0	0	-0.345075	-0.0361555	-0.0386799	0.901361	-0.357268	0.512598	1.03413	1.5708	0	0	0.819822	-0.18088	0.416244	1.1751	1.5708	0	0
15.03	3.07539	1.42162	-1.47167	0.680241	0.428902	0.930707	0.162179	0.015723	-0.463188	0.100284	-0.212979	0	0	-0.224187	-0.070742	-0.394894	0.36504	0.211811	0	0	-0.344968	-0.0432643	-0.035066	0.906731	-0.358862	0.511093	1.032	1.5708	0	0	0.827167	-0.179021	0.419659	1.17405	1.5708	0	0
15.04	3.09921	1.42615	-1.50247	0.679654	0.419629	0.930616	0.185464	0.00224649	-0.466889	0.120419	-0.205311	0	0	-0.211601	-0.0615358	-0.395709	0.360389	0.210508	0	0	-0.345719	-0.0499696	-0.03003	0.912361	-0.360814	0.510786	1.02953	1.5708	0	0	0.834259	-0.176946	0.423217	1.17232	1.5708	0	0
15.05	3.1178	1.42833	-1.52912	0.67921	0.410593	0.930782	0.205604	-0.00969369	-0.467033	0.141065	-0.194415	0	0	-0.201846	-0.0533201	-0.399591	0.355529	0.207509	0	0	-0.348094	-0.0554155	-0.0235359	0.918152	-0.363095	0.511886	1.02704	1.5708	0	0	0.840966	-0.174518	0.426702	1.16972	1.5708	0	0
15.06	3.13046	1.42814	-1.54998	0.67889	0.401779	0.93125	0.222001	-0.0196747	-0.461565	0.161853	-0.183231	0	0	-0.194391	-0.04652	-0.405228	0.351489	0.203526	0	0	-0.352384	-0.059588	-0.0165783	0.923981	-0.365535	0.513679	1.02445	1.5708	0	0	0.847259	-0.172042	0.429795	1.16659	1.5708	0	0
15.07	-3.14153	1.42619	-1.56948	0.678672	0.393171	0.931936	0.236727	-0.0293464	-0.449836	0.18629	-0.169698	0	0	-0.188838	-0.0399519	-0.411062	0.347505	0.198935	0	0	-0.358007	-0.0634514	-0.00945423	0.929819	-0.368	0.515967	1.02148	1.5708	0	0	0.853574	-0.169787	0.433057	1.16307	1.5708	0	0
15.08	-3.13774	1.42275	-1.58097	0.678541	0.384817	0.93283	0.248685	-0.0372891	-0.431343	0.21228	-0.154887	0	0	-0.184898	-0.0347445	-0.415469	0.343592	0.193323	0	0	-0.364656	-0.0660109	-0.00266901	0.935135	-0.37037	0.518587	1.01907	1.5708	0	0	0.859354	-0.167692	0.436071	1.15966	1.5708	0	0
15.09	-3.13795	1.4187	-1.58759	0.678385	0.376712	0.933856	0.259516	-0.044677	-0.410267	0.241555	-0.138278	0	0	-0.181344	-0.0306165	-0.418007	0.340237	0.186802	0	0	-0.371272	-0.0674402	0.00368527	0.939765	-0.372895	0.521448	1.01678	1.5708	0	0	0.863726	-0.165326	0.438292	1.15605	1.5708	0	0
15.1	-3.1405	1.41394	-1.59014	0.678112	0.369002	0.935021	0.268162	-0.0519873	-0.391689	0.273178	-0.121036	0	0	-0.178372	-0.0275278	-0.417933	0.337509	0.180215	0	0	-0.377741	-0.0677512	0.00857255	0.943178	-0.375105	0.524112	1.01431	1.5708	0	0	0.866359	-0.162651	0.439503	1.15261	1.5708	0	0
15.11	3.13962	1.40855	-1.59016	0.67769	0.361686	0.936296	0.274633	-0.0598047	-0.376776	0.307237	-0.104351	0	0	-0.176197	-0.0249222	-0.415533	0.334833	0.173219	0	0	-0.384051	-0.0671955	0.0114446	0.945287	-0.3768	0.526441	1.01192	1.5708	0	0	0.867401	-0.160237	0.440197	1.14978	1.5708	0	0
15.12	3.13866	1.40331	-1.59079	0.677198	0.35468	0.937606	0.280012	-0.0682682	-0.362727	0.343473	-0.0898339	0	0	-0.173955	-0.022152	-0.41105	0.332153	0.164414	0	0	-0.389483	-0.0664789	0.0127431	0.946152	-0.378078	0.52834	1.00957	1.5708	0	0	0.8671	-0.158164	0.440357	1.14722	1.5708	0	0
15.13	3.13175	1.39786	-1.58393	0.676692	0.347889	0.939016	0.282584	-0.0750499	-0.348976	0.378734	-0.0805104	0	0	-0.17139	-0.0214402	-0.406325	0.331137	0.155422	0	0	-0.39475	-0.0641737	0.0127701	0.946032	-0.378777	0.529292	1.00774	1.5708	0	0	0.865617	-0.1565	0.439921	1.14526	1.5708	0	0
15.14	3.13427	1.39582	-1.58482	0.676214	0.341444	0.940232	0.28822	-0.0843955	-0.338996	0.41753	-0.072774	0	0	-0.164924	-0.0197902	-0.401234	0.330767	0.146792	0	0	-0.39653	-0.0640814	0.0137601	0.920982	-0.364423	0.36158	1.08622	1.13973	0	0	0.864789	-0.152621	0.442633	1.14195	1.5708	0	0
15.15	3.13227	1.3901	-1.58149	0.675478	0.33494	0.941464	0.289646	-0.0938427	-0.331824	0.459236	-0.0672364	0	0	-0.163401	-0.0185038	-0.3984	0.32882	0.139472	0	0	-0.40028	-0.0608324	0.00895127	0.94212	-0.378535	0.528801	1.00442	1.5708	0	0	0.859868	-0.153718	0.438542	1.14243	1.5708	0	0
15.16	3.13048	1.38717	-1.57749	0.674899	0.328725	0.942545	0.29155	-0.102301	-0.32504	0.499042	-0.0648184	0	0	-0.158975	-0.0177501	-0.394461	0.327364	0.132125	0	0	-0.401281	-0.0583442	0.00642376	0.93907	-0.377888	0.528252	1.00279	1.5708	0	0	0.855628	-0.152303	0.437151	1.14127	1.5708	0	0
15.17	-3.13435	1.39454	-1.60185	0.67442	0.321046	0.942597	0.302706	-0.114632	-0.326849	0.529752	-0.0686474	0	0	-0.141001	-0.0105089	-0.392318	0.327377	0.122927	0	0	-0.39426	-0.0606065	0.00984037	0.940364	-0.378147	0.530367	1.0008	1.5708	0	0	0.85255	-0.150048	0.433299	1.14017	1.5708	0	0
15.18	3.12635	1.38029	-1.5679	0.673765	0.316606	0.944671	0.289788	-0.117503	-0.310126	0.578593	-0.0601936	0	0	-0.153301	-0.0156994	-0.383143	0.320699	0.116112	0	0	-0.403718	-0.0525912	0.00035359	0.933546	-0.376448	0.527673	0.999588	1.5708	0	0	0.847091	-0.150964	0.434612	1.13993	1.5708	0	0
15.19	3.12815	1.37795	-1.56686	0.67334	0.310661	0.945513	0.28902	-0.125099	-0.301278	0.619697	-0.0568548	0	0	-0.149227	-0.0144114	-0.378292	0.317994	0.109254	0	0	-0.403444	-0.0506683	-0.00274326	0.929769	-0.375494	0.525806	0.999006	1.5708	0	0	0.843284	-0.15069	0.434637	1.13911	1.5708	0	0
15.2	-3.13288	1.38588	-1.59523	0.673264	0.30331	0.945227	0.298858	-0.13807	-0.300574	0.653658	-0.05754	0	0	-0.131707	-0.00678406	-0.377263	0.317287	0.101975	0	0	-0.395103	-0.054498	0.00105493	0.929536	-0.37526	0.525082	0.998562	1.5708	0	0	0.841184	-0.149377	0.433492	1.13788	1.5708	0	0
15.21	3.13872	1.37241	-1.57297	0.672801	0.299088	0.946953	0.28272	-0.139674	-0.282391	0.699205	-0.0501846	0	0	-0.144523	-0.00955081	-0.368785	0.309061	0.0961571	0	0	-0.403213	-0.0487629	-0.00797461	0.921775	-0.37344	0.520713	0.998748	1.5708	0	0	0.836366	-0.150946	0.436922	1.1377	1.5708	0	0
15.22	3.13664	1.3712	-1.57476	0.671887	0.293693	0.947348	0.278403	-0.158825	-0.27884	0.735811	-0.038794	0	0	-0.141437	-0.00459966	-0.364435	0.304755	0.0887241	0	0	-0.400567	-0.0455747	-0.00666004	0.917323	-0.371358	0.518623	0.999597	1.5708	0	0	0.831187	-0.150751	0.44022	1.13763	1.5708	0	0
15.23	-3.13188	1.37035	-1.58915	0.671945	0.288132	0.947554	0.275452	-0.168318	-0.267518	0.774109	-0.0341306	0	0	-0.138153	-0.000103677	-0.362258	0.299366	0.0823598	0	0	-0.397753	-0.047545	-0.00789296	0.911762	-0.370099	0.514833	1.00045	1.5708	0	0	0.827853	-0.152458	0.443477	1.13735	1.5708	0	0
15.24	-3.11944	1.36855	-1.60103	0.672087	0.282594	0.94777	0.269357	-0.176768	-0.257473	0.809305	-0.0305776	0	0	-0.135612	0.00337774	-0.361468	0.294797	0.0771952	0	0	-0.395978	-0.049082	-0.00920866	0.906434	-0.368975	0.511868	1.00186	1.5708	0	0	0.824517	-0.154228	0.446186	1.1373	1.5708	0	0
15.25	-3.0984	1.36833	-1.62244	0.672435	0.277051	0.947712	0.265224	-0.186232	-0.245764	0.844603	-0.026336	0	0	-0.13149	0.00883654	-0.36075	0.289543	0.0711593	0	0	-0.392358	-0.0529986	-0.00972698	0.899941	-0.367878	0.507224	1.00439	1.5708	0	0	0.821199	-0.15634	0.449692	1.13752	1.5708	0	0
15.26	-3.07434	1.36864	-1.64746	0.672959	0.271503	0.947505	0.260603	-0.195419	-0.233791	0.877667	-0.0211677	0	0	-0.126073	0.0143883	-0.361516	0.285622	0.0651045	0	0	-0.388018	-0.057856	-0.0095792	0.893017	-0.366939	0.502183	1.00757	1.5708	0	0	0.817595	-0.158771	0.452767	1.13827	1.5708	0	0
15.27	-3.04981	1.36955	-1.6741	0.673732	0.265793	0.947154	0.255324	-0.203834	-0.221482	0.908001	-0.0149644	0	0	-0.119503	0.0196374	-0.364539	0.283076	0.0602453	0	0	-0.382739	-0.062883	-0.00798534	0.88586	-0.366138	0.49693	1.01134	1.5708	0	0	0.813232	-0.161191	0.455383	1.13976	1.5708	0	0
15.28	-3.02735	1.37055	-1.6988	0.674561	0.260239	0.946743	0.249066	-0.210282	-0.208323	0.935245	-0.0116102	0	0	-0.111808	0.0236187	-0.368944	0.282011	0.0566966	0	0	-0.377538	-0.0676665	-0.00588649	0.878502	-0.365408	0.491682	1.01562	1.5708	0	0	0.809144	-0.163658	0.457848	1.14155	1.5708	0	0
15.29	-3.00676	1.37155	-1.72203	0.675556	0.254586	0.946341	0.241429	-0.215819	-0.196517	0.959404	-0.00951328	0	0	-0.103856	0.027003	-0.372283	0.281312	0.0519002	0	0	-0.372405	-0.072118	-0.00286919	0.870736	-0.364837	0.486376	1.02076	1.5708	0	0	0.804992	-0.165917	0.46009	1.14326	1.5708	0	0
15.3	-2.98637	1.37242	-1.74541	0.676659	0.248931	0.945949	0.232064	-0.220436	-0.185386	0.979689	-0.0114532	0	0	-0.0953011	0.0298312	-0.375643	0.281988	0.0466045	0	0	-0.367449	-0.0765732	0.000911992	0.862727	-0.36437	0.480476	1.02633	1.5708	0	0	0.800712	-0.167835	0.461413	1.14496	1.5708	0	0
15.31	-2.96824	1.3731	-1.76686	0.677867	0.243233	0.94557	0.220784	-0.223994	-0.175492	0.996013	-0.015124	0	0	-0.0862987	0.0317464	-0.379653	0.283781	0.041385	0	0	-0.362815	-0.0805091	0.00543751	0.854839	-0.364085	0.474184	1.03243	1.5708	0	0	0.796391	-0.169238	0.461759	1.14646	1.5708	0	0
15.32	-2.94707	1.37653	-1.78952	0.679466	0.237909	0.945123	0.207536	-0.222873	-0.16204	1.00428	-0.000762817	0	0	-0.0738039	0.0323848	-0.385923	0.285463	0.0347146	0	0	-0.356155	-0.0857483	0.0117753	0.825191	-0.348228	0.274181	1.12942	0.881819	0	0	0.794596	-0.167527	0.464822	1.14579	1.5708	0	0
15.33	-2.9389	1.37599	-1.80326	0.680603	0.232128	0.944738	0.194835	-0.228694	-0.161139	1.01667	-0.0222293	0	0	-0.0656048	0.0325983	-0.389081	0.289688	0.0316044	0	0	-0.353242	-0.0854588	0.012867	0.84216	-0.360719	0.464649	1.04407	1.5708	0	0	0.766221	-0.158046	0.276142	1.24641	1.03005	0	0
15.34	-2.92269	1.37417	-1.82216	0.681931	0.22592	0.944407	0.176032	-0.233225	-0.159493	1.02182	-0.02358	0	0	-0.0580311	0.0339188	-0.392063	0.292983	0.0263769	0	0	-0.350656	-0.0897812	0.0211811	0.831427	-0.363341	0.452261	1.0541	1.5708	0	0	0.784665	-0.170056	0.459131	1.15028	1.5708	0	0
15.35	-2.91057	1.37455	-1.83757	0.68343	0.220164	0.943985	0.157831	-0.235765	-0.158712	1.02262	-0.0256974	0	0	-0.0482095	0.0336165	-0.396431	0.29661	0.0216009	0	0	-0.346697	-0.091854	0.026829	0.823823	-0.363074	0.44545	1.06168	1.5708	0	0	0.781129	-0.169985	0.458302	1.15087	1.5708	0	0
15.36	-2.89959	1.37495	-1.85158	0.684954	0.214241	0.943566	0.138282	-0.238076	-0.159912	1.01996	-0.0290392	0	0	-0.0381091	0.0327705	-0.400706	0.300729	0.0166811	0	0	-0.34295	-0.0934252	0.0323222	0.816496	-0.362744	0.439004	1.06933	1.5708	0	0	0.777966	-0.169913	0.458063	1.15101	1.5708	0	0
15.37	-2.8892	1.37535	-1.86508	0.686476	0.208412	0.943101	0.117569	-0.240679	-0.163392	1.01397	-0.0308006	0	0	-0.028081	0.0317267	-0.404838	0.304578	0.0116078	0	0	-0.339269	-0.0946847	0.0379699	0.80927	-0.362599	0.432927	1.07728	1.5708	0	0	0.774771	-0.169661	0.457536	1.15107	1.5708	0	0
15.38	-2.88009	1.37546	-1.87673	0.688033	0.202425	0.942662	0.0949235	-0.243224	-0.169396	1.00477	-0.028921	0	0	-0.0183048	0.0303833	-0.408463	0.308428	0.00634399	0	0	-0.336191	-0.0954322	0.0431718	0.802536	-0.362555	0.427141	1.08521	1.5708	0	0	0.771613	-0.169315	0.456492	1.15115	1.5708	0	0
15.39	-2.87169	1.37557	-1.8875	0.689572	0.196539	0.942192	0.0710777	-0.245732	-0.177627	0.99217	-0.0246091	0	0	-0.0084941	0.0288095	-0.412232	0.31213	0.000898822	0	0	-0.333134	-0.0956716	0.0480497	0.797229	-0.363141	0.424923	1.09209	1.5708	0	0	0.768256	-0.16905	0.454459	1.15138	1.5708	0	0
15.4	-2.86066	1.37674	-1.89976	0.691521	0.190881	0.941808	0.0460754	-0.247163	-0.188086	0.974619	-0.0216254	0	0	0.00203556	0.0271772	-0.414625	0.314841	-0.00581806	0	0	-0.329995	-0.0973637	0.0563183	0.768555	-0.343942	0.206051	1.19656	0.687779	0	0	0.768339	-0.1659	0.457778	1.1491	1.5708	0	0
